<svg width="33" height="24" viewBox="0 0 33 24" fill="none" xmlns="http://www.w3.org/2000/svg">
<path fill-rule="evenodd" clip-rule="evenodd" d="M20 6C20 9.31371 17.3137 12 14 12C10.6863 12 8 9.31371 8 6C8 2.68629 10.6863 0 14 0C17.3137 0 20 2.68629 20 6ZM10 15C10 17.7614 7.76142 20 5 20C2.23858 20 0 17.7614 0 15C0 12.2386 2.23858 10 5 10C7.76142 10 10 12.2386 10 15ZM25 24C29.4183 24 33 20.4183 33 16C33 11.5817 29.4183 8 25 8C20.5817 8 17 11.5817 17 16C17 20.4183 20.5817 24 25 24Z" fill="#8181FF"/>
</svg>
